<?xml version="1.0" encoding="UTF-8" standalone="no"?><!DOCTYPE svg PUBLIC "-//W3C//DTD SVG 1.1//EN" "http://www.w3.org/Graphics/SVG/1.1/DTD/svg11.dtd"><svg width="100%" height="100%" viewBox="0 0 57 66" version="1.1" xmlns="http://www.w3.org/2000/svg" xmlns:xlink="http://www.w3.org/1999/xlink" xml:space="preserve" xmlns:serif="http://www.serif.com/" style="fill-rule:evenodd;clip-rule:evenodd;stroke-linejoin:round;stroke-miterlimit:2;"><g><path d="M36.617,37.844c-0.128,-0.191 -0.387,-0.243 -0.578,-0.115l-7.259,4.836c-0.192,0.128 -0.243,0.387 -0.116,0.579l14.435,21.664c0.128,0.191 0.387,0.243 0.579,0.115l7.258,-4.836c0.192,-0.128 0.244,-0.387 0.116,-0.579l-14.435,-21.664Z"/><g><path d="M16.605,15.236c-1.012,-1.012 -2.656,-1.012 -3.668,0l-4.303,4.303c-1.012,1.012 -1.012,2.656 0,3.668l13.19,13.19c1.013,1.012 2.656,1.012 3.668,0l4.303,-4.303c1.012,-1.012 1.012,-2.655 -0,-3.667l-13.19,-13.191Z" style="fill:#ee0020;"/></g><path d="M45.4,35.561c-0.853,2.347 -3.415,8.454 -10.496,11.552c-3.072,1.344 -6.474,2.016 -10.207,2.016c-7.211,0 -12.859,-2.123 -16.944,-6.368c-4.085,-4.245 -6.128,-10.208 -6.128,-17.887c0,-7.659 2.048,-13.616 6.144,-17.872c4.096,-4.256 9.653,-6.384 16.672,-6.384c6.954,0 12.469,2.128 16.543,6.384c4.075,4.256 6.112,10.213 6.112,17.872c0,4.053 -0.565,7.615 -1.696,10.687Zm-21.311,5.696c8.474,-0.507 12.608,-3.219 13.247,-16.383c0.263,-5.413 -1.194,-9.467 -3.584,-12.144c-2.389,-2.678 -5.514,-4.016 -9.375,-4.016c-3.862,-0 -6.992,1.344 -9.392,4.032c-2.4,2.688 -3.6,6.73 -3.6,12.128c-0,5.482 1.2,9.583 3.6,12.303c2.4,2.72 5.441,4.3 9.104,4.08Z" style="fill-rule:nonzero;"/><path d="M52.587,9.348c1.012,-1.012 1.012,-2.656 0,-3.668l-4.303,-4.303c-1.012,-1.012 -2.655,-1.012 -3.668,0l-27.049,27.05c-1.012,1.012 -1.012,2.655 -0,3.667l4.303,4.303c1.012,1.012 2.655,1.012 3.668,0l27.049,-27.049Z" style="fill:#ee0020;"/></g></svg>