<?xml version="1.0" encoding="UTF-8" standalone="no"?><!DOCTYPE svg PUBLIC "-//W3C//DTD SVG 1.1//EN" "http://www.w3.org/Graphics/SVG/1.1/DTD/svg11.dtd"><svg width="100%" height="100%" viewBox="0 0 241 79" version="1.1" xmlns="http://www.w3.org/2000/svg" xmlns:xlink="http://www.w3.org/1999/xlink" xml:space="preserve" xmlns:serif="http://www.serif.com/" style="fill-rule:evenodd;clip-rule:evenodd;stroke-linejoin:round;stroke-miterlimit:2;"><rect id="ArtBoard2" x="6.25" y="6.25" width="227.451" height="65.611" style="fill:none;"/><g><path d="M86.617,44.094c-0.128,-0.191 -0.387,-0.243 -0.578,-0.115l-7.259,4.836c-0.192,0.128 -0.243,0.387 -0.116,0.579l14.435,21.664c0.128,0.191 0.387,0.243 0.579,0.115l7.258,-4.836c0.192,-0.128 0.244,-0.387 0.116,-0.579l-14.435,-21.664Z"/><g><path d="M66.605,21.486c-1.012,-1.012 -2.656,-1.012 -3.668,0l-4.303,4.303c-1.012,1.012 -1.012,2.656 0,3.668l13.19,13.19c1.013,1.012 2.656,1.012 3.668,0l4.303,-4.303c1.012,-1.012 1.012,-2.655 -0,-3.667l-13.19,-13.191Z" style="fill:#ee0020;"/></g><g><path d="M6.25,7.668l18.752,0c3.712,0 6.479,0.155 8.303,0.464c1.824,0.309 3.456,0.955 4.896,1.936c1.44,0.981 2.64,2.288 3.6,3.92c0.96,1.632 1.44,3.461 1.44,5.488c0,2.197 -0.592,4.213 -1.776,6.048c-1.184,1.834 -2.789,3.21 -4.816,4.128c2.859,0.832 5.056,2.25 6.592,4.255c1.536,2.006 2.304,4.363 2.304,7.072c0,2.134 -0.496,4.208 -1.488,6.224c-0.992,2.016 -2.346,3.627 -4.064,4.832c-1.717,1.205 -3.834,1.947 -6.352,2.224c-1.578,0.171 -5.386,0.277 -11.423,0.32l-15.968,0l0,-46.911Zm9.472,7.808l-0,10.848l6.208,-0c3.69,-0 5.984,-0.054 6.88,-0.16c1.621,-0.192 2.895,-0.752 3.823,-1.68c0.928,-0.928 1.392,-2.15 1.392,-3.664c0,-1.451 -0.4,-2.63 -1.2,-3.536c-0.8,-0.907 -1.989,-1.456 -3.567,-1.648c-0.939,-0.107 -3.638,-0.16 -8.096,-0.16l-5.44,-0Zm-0,18.655l-0,12.544l8.768,0c3.413,0 5.578,-0.096 6.495,-0.288c1.408,-0.256 2.555,-0.88 3.44,-1.872c0.886,-0.992 1.328,-2.32 1.328,-3.984c0,-1.408 -0.341,-2.602 -1.024,-3.584c-0.682,-0.981 -1.669,-1.696 -2.96,-2.144c-1.29,-0.448 -4.09,-0.672 -8.399,-0.672l-7.648,0Z" style="fill-rule:nonzero;"/><path d="M95.4,41.811c-0.853,2.347 -3.415,8.454 -10.496,11.552c-3.072,1.344 -6.474,2.016 -10.207,2.016c-7.211,0 -12.859,-2.123 -16.944,-6.368c-4.085,-4.245 -6.128,-10.208 -6.128,-17.887c0,-7.659 2.048,-13.616 6.144,-17.872c4.096,-4.256 9.653,-6.384 16.672,-6.384c6.954,0 12.469,2.128 16.543,6.384c4.075,4.256 6.112,10.213 6.112,17.872c0,4.053 -0.565,7.615 -1.696,10.687Zm-21.311,5.696c8.474,-0.507 12.608,-3.219 13.247,-16.383c0.263,-5.413 -1.194,-9.467 -3.584,-12.144c-2.389,-2.678 -5.514,-4.016 -9.375,-4.016c-3.862,-0 -6.992,1.344 -9.392,4.032c-2.4,2.688 -3.6,6.73 -3.6,12.128c-0,5.482 1.2,9.583 3.6,12.303c2.4,2.72 5.441,4.3 9.104,4.08Z" style="fill-rule:nonzero;"/><path d="M126.824,54.579l-0,-5.088c-1.238,1.813 -2.864,3.243 -4.88,4.288c-2.016,1.045 -4.144,1.568 -6.384,1.568c-2.283,0 -4.331,-0.501 -6.144,-1.504c-1.813,-1.003 -3.125,-2.411 -3.936,-4.224c-0.811,-1.813 -1.216,-4.32 -1.216,-7.52l-0,-21.503l8.992,-0l-0,15.615c-0,4.779 0.165,7.707 0.496,8.784c0.33,1.078 0.933,1.931 1.808,2.56c0.874,0.63 1.984,0.944 3.328,0.944c1.536,0 2.912,-0.421 4.128,-1.264c1.216,-0.842 2.048,-1.888 2.496,-3.136c0.448,-1.248 0.672,-4.304 0.672,-9.168l-0,-14.335l8.991,-0l0,33.983l-8.351,0Z" style="fill-rule:nonzero;"/><path d="M164.167,43.763l8.96,1.504c-1.152,3.285 -2.971,5.787 -5.456,7.504c-2.486,1.717 -5.595,2.576 -9.328,2.576c-5.909,0 -10.283,-1.931 -13.12,-5.792c-2.24,-3.093 -3.36,-6.997 -3.36,-11.712c0,-5.631 1.472,-10.042 4.416,-13.231c2.944,-3.19 6.667,-4.784 11.168,-4.784c5.056,-0 9.045,1.669 11.968,5.008c2.922,3.338 4.32,8.453 4.192,15.343l-22.528,0c0.064,2.667 0.789,4.742 2.176,6.224c1.387,1.483 3.115,2.224 5.184,2.224c1.408,0 2.592,-0.384 3.552,-1.152c0.96,-0.768 1.685,-2.005 2.176,-3.712Zm0.512,-9.088c-0.064,-2.602 -0.736,-4.581 -2.016,-5.935c-1.28,-1.355 -2.838,-2.032 -4.672,-2.032c-1.963,-0 -3.584,0.714 -4.864,2.144c-1.28,1.429 -1.909,3.37 -1.888,5.823l13.44,0Z" style="fill-rule:nonzero;"/><path d="M177.766,44.883l9.024,-1.376c0.384,1.75 1.163,3.078 2.336,3.984c1.174,0.907 2.816,1.36 4.928,1.36c2.325,0 4.075,-0.427 5.248,-1.28c0.789,-0.597 1.184,-1.397 1.184,-2.4c-0,-0.682 -0.213,-1.248 -0.64,-1.696c-0.448,-0.426 -1.451,-0.821 -3.008,-1.184c-7.253,-1.6 -11.85,-3.061 -13.792,-4.384c-2.688,-1.834 -4.032,-4.384 -4.032,-7.647c0,-2.944 1.163,-5.419 3.488,-7.424c2.326,-2.006 5.931,-3.008 10.816,-3.008c4.651,-0 8.107,0.757 10.368,2.272c2.261,1.514 3.819,3.754 4.672,6.72l-8.48,1.568c-0.363,-1.323 -1.051,-2.336 -2.064,-3.04c-1.013,-0.704 -2.459,-1.056 -4.336,-1.056c-2.368,-0 -4.064,0.33 -5.088,0.992c-0.682,0.469 -1.024,1.077 -1.024,1.824c0,0.64 0.299,1.184 0.896,1.632c0.811,0.597 3.611,1.44 8.4,2.527c4.789,1.088 8.133,2.422 10.032,4c1.877,1.6 2.816,3.83 2.816,6.688c-0,3.115 -1.302,5.792 -3.904,8.032c-2.603,2.24 -6.453,3.36 -11.552,3.36c-4.629,0 -8.293,-0.939 -10.992,-2.816c-2.698,-1.877 -4.464,-4.426 -5.296,-7.648Z" style="fill-rule:nonzero;"/><path d="M232.965,20.596l0,7.168l-6.144,-0l0,13.695c0,2.774 0.059,4.39 0.176,4.848c0.118,0.459 0.384,0.838 0.8,1.136c0.416,0.299 0.923,0.448 1.52,0.448c0.832,0 2.038,-0.288 3.616,-0.864l0.768,6.976c-2.09,0.896 -4.458,1.344 -7.104,1.344c-1.621,0 -3.082,-0.272 -4.383,-0.816c-1.302,-0.544 -2.256,-1.248 -2.864,-2.112c-0.608,-0.864 -1.03,-2.032 -1.264,-3.504c-0.192,-1.045 -0.288,-3.157 -0.288,-6.336l-0,-14.815l-4.128,-0l-0,-7.168l4.128,-0l-0,-6.752l9.023,-5.248l0,12l6.144,-0Z" style="fill-rule:nonzero;"/></g><path d="M102.587,15.598c1.012,-1.012 1.012,-2.656 0,-3.668l-4.303,-4.303c-1.012,-1.012 -2.655,-1.012 -3.668,0l-27.049,27.05c-1.012,1.012 -1.012,2.655 -0,3.667l4.303,4.303c1.012,1.012 2.655,1.012 3.668,0l27.049,-27.049Z" style="fill:#ee0020;"/></g></svg>